<svg xmlns="http://www.w3.org/2000/svg" xmlns:xlink="http://www.w3.org/1999/xlink" viewBox="0 0 430 430" width="430" height="430" preserveAspectRatio="xMidYMid meet" style="width: 100%; height: 100%; transform: translate3d(0px, 0px, 0px); content-visibility: visible;"><defs><clipPath id="__lottie_element_26"><rect width="430" height="430" x="0" y="0"/></clipPath><clipPath id="__lottie_element_28"><path d="M0,0 L430,0 L430,430 L0,430z"/></clipPath></defs><g clip-path="url(#__lottie_element_26)"><g clip-path="url(#__lottie_element_28)" transform="matrix(1,0,0,1,0,0)" opacity="1" style="display: block;"><g transform="matrix(1,0,0,1,214.29600524902344,215.50100708007812)" opacity="1" style="display: block;"><g opacity="1" transform="matrix(1,0,0,1,0,0)"><path class="primary" fill="rgb(75,179,253)" fill-opacity="1" d=" M50.70399856567383,-55.5 C50.70399856567383,-53.84299850463867 49.361000061035156,-52.5 47.70399856567383,-52.5 C47.70399856567383,-52.5 -186.29600524902344,-52.5 -186.29600524902344,-52.5 C-187.9530029296875,-52.5 -189.29600524902344,-51.15700149536133 -189.29600524902344,-49.5 C-189.29600524902344,-49.5 -189.29600524902344,49.5 -189.29600524902344,49.5 C-189.29600524902344,51.15700149536133 -187.9530029296875,52.5 -186.29600524902344,52.5 C-186.29600524902344,52.5 47.70399856567383,52.5 47.70399856567383,52.5 C49.361000061035156,52.5 50.70399856567383,53.84299850463867 50.70399856567383,55.5 C50.70399856567383,55.5 50.70399856567383,123.12000274658203 50.70399856567383,123.12000274658203 C50.70399856567383,125.73899841308594 53.82600021362305,127.10099792480469 55.74599838256836,125.31900024414062 C55.74599838256836,125.31900024414062 188.33700561523438,2.197999954223633 188.33700561523438,2.197999954223633 C189.61500549316406,1.0110000371932983 189.61500549316406,-1.0110000371932983 188.33700561523438,-2.197999954223633 C188.33700561523438,-2.197999954223633 55.74599838256836,-125.31900024414062 55.74599838256836,-125.31900024414062 C53.82600021362305,-127.10099792480469 50.70399856567383,-125.73899841308594 50.70399856567383,-123.12000274658203 C50.70399856567383,-123.12000274658203 50.70399856567383,-55.5 50.70399856567383,-55.5z"/></g><g opacity="0.5" transform="matrix(1,0,0,1,0,0)" style="mix-blend-mode: multiply;"><path class="primary" fill="rgb(75,179,253)" fill-opacity="1" d=" M-189.29600524902344,49.499000549316406 C-189.29600524902344,49.499000549316406 -189.29600524902344,-0.0010000000474974513 -189.29600524902344,-0.0010000000474974513 C-189.29600524902344,-0.0010000000474974513 189.29600524902344,-0.0010000000474974513 189.29600524902344,-0.0010000000474974513 C189.29600524902344,0.800000011920929 188.97799682617188,1.600000023841858 188.3419952392578,2.193000078201294 C188.33999633789062,2.194000005722046 188.33900451660156,2.197000026702881 188.33700561523438,2.197999954223633 C188.33700561523438,2.197999954223633 55.74599838256836,125.31800079345703 55.74599838256836,125.31800079345703 C53.82600021362305,127.0999984741211 50.70399856567383,125.73899841308594 50.70399856567383,123.12000274658203 C50.70399856567383,123.12000274658203 50.70399856567383,52.5 50.70399856567383,52.5 C50.70399856567383,52.5 -186.29600524902344,52.499000549316406 -186.29600524902344,52.499000549316406 C-186.2989959716797,52.499000549316406 -186.30099487304688,52.499000549316406 -186.3040008544922,52.499000549316406 C-187.95700073242188,52.49399948120117 -189.29600524902344,51.15299987792969 -189.29600524902344,49.499000549316406z"/></g><g opacity="1" transform="matrix(1,0,0,1,0,0)"><path stroke-linecap="round" stroke-linejoin="round" fill-opacity="0" class="secondary" stroke="rgb(18,19,49)" stroke-opacity="1" stroke-width="7" d=" M50.70399856567383,-55.5 C50.70399856567383,-53.84299850463867 49.361000061035156,-52.5 47.70399856567383,-52.5 C47.70399856567383,-52.5 -186.29600524902344,-52.5 -186.29600524902344,-52.5 C-187.9530029296875,-52.5 -189.29600524902344,-51.15700149536133 -189.29600524902344,-49.5 C-189.29600524902344,-49.5 -189.29600524902344,49.5 -189.29600524902344,49.5 C-189.29600524902344,51.15700149536133 -187.9530029296875,52.5 -186.29600524902344,52.5 C-186.29600524902344,52.5 47.70399856567383,52.5 47.70399856567383,52.5 C49.361000061035156,52.5 50.70399856567383,53.84299850463867 50.70399856567383,55.5 C50.70399856567383,55.5 50.70399856567383,123.12000274658203 50.70399856567383,123.12000274658203 C50.70399856567383,125.73899841308594 53.82600021362305,127.10099792480469 55.74599838256836,125.31900024414062 C55.74599838256836,125.31900024414062 188.33700561523438,2.197999954223633 188.33700561523438,2.197999954223633 C189.61500549316406,1.0110000371932983 189.61500549316406,-1.0110000371932983 188.33700561523438,-2.197999954223633 C188.33700561523438,-2.197999954223633 55.74599838256836,-125.31900024414062 55.74599838256836,-125.31900024414062 C53.82600021362305,-127.10099792480469 50.70399856567383,-125.73899841308594 50.70399856567383,-123.12000274658203 C50.70399856567383,-123.12000274658203 50.70399856567383,-55.5 50.70399856567383,-55.5z"/></g></g></g></g></svg>